HIERARCHY
ROOT Hips
{
	OFFSET 0.000000 0.000000 0.000000
	CHANNELS 6 Xposition Yposition Zposition Zrotation Yrotation Xrotation 
	JOINT LowerBack
	{
		OFFSET 0.000000 0.000000 0.000000
		CHANNELS 3 Zrotation Yrotation Xrotation
		JOINT Spine
		{
			OFFSET 0.028270 2.035590 -0.193380
			CHANNELS 3 Zrotation Yrotation Xrotation
			JOINT Spine1
			{
				OFFSET 0.056720 2.048850 -0.042750
				CHANNELS 3 Zrotation Yrotation Xrotation
				JOINT Neck
				{
					OFFSET 0.000000 0.000000 0.000000
					CHANNELS 3 Zrotation Yrotation Xrotation
					JOINT Neck1
					{
						OFFSET -0.054170 1.746240 0.172020
						CHANNELS 3 Zrotation Yrotation Xrotation
						JOINT Head
						{
							OFFSET 0.104070 1.761360 -0.123970
							CHANNELS 3 Zrotation Yrotation Xrotation
							End Site
							{
								OFFSET 0.000000 0.000000 0.000000
							}
						}
					}
				}
				JOINT LeftShoulder
				{
					OFFSET 0.000000 0.000000 0.000000
					CHANNELS 3 Zrotation Yrotation Xrotation
					JOINT LeftArm
					{
						OFFSET 3.362410 1.200890 -0.311210
						CHANNELS 3 Zrotation Yrotation Xrotation
						JOINT LeftForeArm
						{
							OFFSET 4.983000 -0.000000 -0.000000
							CHANNELS 3 Zrotation Yrotation Xrotation
							JOINT LeftHand
							{
								OFFSET 3.483560 -0.000000 -0.000000
								CHANNELS 3 Zrotation Yrotation Xrotation
								JOINT LeftFingerBase
								{
									OFFSET 0.000000 0.000000 0.000000
									CHANNELS 3 Zrotation Yrotation Xrotation
									JOINT LeftHandIndex1
									{
										OFFSET 0.715260 -0.000000 -0.000000
										CHANNELS 3 Zrotation Yrotation Xrotation
										End Site
										{
											OFFSET 0.000000 0.000000 0.000000
										}
									}
								}
								JOINT LThumb
								{
									OFFSET 0.000000 0.000000 0.000000
									CHANNELS 3 Zrotation Yrotation Xrotation
									End Site
									{
										OFFSET 0.000000 0.000000 0.000000
									}
								}
							}
						}
					}
				}
				JOINT RightShoulder
				{
					OFFSET 0.000000 0.000000 0.000000
					CHANNELS 3 Zrotation Yrotation Xrotation
					JOINT RightArm
					{
						OFFSET -3.136600 1.374050 -0.404650
						CHANNELS 3 Zrotation Yrotation Xrotation
						JOINT RightForeArm
						{
							OFFSET -5.241900 -0.000000 -0.000000
							CHANNELS 3 Zrotation Yrotation Xrotation
							JOINT RightHand
							{
								OFFSET -3.444170 -0.000000 -0.000000
								CHANNELS 3 Zrotation Yrotation Xrotation
								JOINT RightFingerBase
								{
									OFFSET 0.000000 0.000000 0.000000
									CHANNELS 3 Zrotation Yrotation Xrotation
									JOINT RightHandIndex1
									{
										OFFSET -0.622530 -0.000000 -0.000000
										CHANNELS 3 Zrotation Yrotation Xrotation
										End Site
										{
											OFFSET 0.000000 0.000000 0.000000
										}
									}
								}
								JOINT RThumb
								{
									OFFSET 0.000000 0.000000 0.000000
									CHANNELS 3 Zrotation Yrotation Xrotation
									End Site
									{
										OFFSET 0.000000 0.000000 0.000000
									}
								}
							}
						}
					}
				}
			}
		}
	}
}
}
MOTION
Frames: 15
Frame Time: 0.008333
-8.615164 16.990208 -1.436454 37.723176 87.406223 48.472841 -3.689074 3.528013 -6.245338 -2.083528 3.549664 -4.160937 -7.098403 3.499311 0.951297 10.389558 -4.429931 -9.377066 -3.082711 -0.228453 -0.473871 0.000000 0.000000 0.000000 0.722485 27.004100 1.640291 -53.332016 24.730023 8.370562 -2.995236 -46.151273 -0.006515 0.025577 3.129256 0.005206 -0.138893 -0.131255 -0.000000 0.000000 0.000000 0.000000 0.000000 0.000000 0.000000 14.664340 5.517784 -0.388427 63.178433 19.877918 18.499737 1.518329 59.115577 0.009423 0.919448 6.092344 0.052211 0.013695 -0.323847 -0.000000 0.000000 0.000000 0.000000 0.000000 0.000000 0.000000 
-8.428856 16.978569 -1.414079 46.949417 87.520144 57.425040 -3.985176 3.380094 -6.051661 -2.161190 3.437195 -4.127838 -7.177142 3.392280 0.935796 10.600005 -4.524195 -9.408993 -3.151179 -0.233272 -0.487862 0.000000 0.000000 0.000000 0.683658 26.809286 1.637973 -53.346307 24.151070 8.222794 -3.027953 -45.548179 -0.006067 0.205132 3.113507 0.010204 -0.138824 -0.130616 -0.000000 0.000000 0.000000 0.000000 0.000000 0.000000 0.000000 15.226011 5.388272 -0.356699 63.805894 19.456519 18.393637 1.579332 58.215655 0.010119 1.021073 6.181974 0.058615 0.015268 -0.319815 -0.000000 0.000000 0.000000 0.000000 0.000000 0.000000 0.000000 
-8.246301 16.972616 -1.393120 55.646245 87.525238 65.819577 -4.256404 3.248359 -5.816392 -2.231599 3.338205 -4.086775 -7.248194 3.298337 0.916708 10.772409 -4.611386 -9.434278 -3.221217 -0.238194 -0.500269 0.000000 0.000000 0.000000 0.585370 26.592254 1.629416 -53.428665 23.480001 8.062641 -3.065447 -44.816670 -0.005597 0.409433 3.110367 0.016000 -0.138610 -0.129869 -0.000000 0.000000 0.000000 0.000000 0.000000 0.000000 0.000000 15.751745 5.258933 -0.326275 64.465944 19.008319 18.203384 1.644838 57.181319 0.010721 1.105818 6.259628 0.064015 0.017156 -0.314857 -0.000000 0.000000 0.000000 0.000000 0.000000 0.000000 0.000000 
-8.067360 16.972693 -1.374486 63.262762 87.449498 73.110346 -4.493178 3.129529 -5.546197 -2.290683 3.248058 -4.038917 -7.309329 3.212333 0.893131 10.899833 -4.686536 -9.449460 -3.291082 -0.243133 -0.509906 0.000000 0.000000 0.000000 0.417004 26.351924 1.614137 -53.572669 22.729977 7.901324 -3.106787 -43.974151 -0.005132 0.629606 3.123222 0.022293 -0.138224 -0.129030 -0.000000 0.000000 0.000000 0.000000 0.000000 0.000000 0.000000 16.224016 5.130317 -0.299796 65.158329 18.521712 17.914642 1.713795 56.018871 0.011179 1.166369 6.316926 0.067813 0.019340 -0.308856 -0.000000 0.000000 0.000000 0.000000 0.000000 0.000000 0.000000 
-7.891732 16.978855 -1.358876 69.548496 87.327774 79.052136 -4.678768 3.020721 -5.249089 -2.334032 3.162387 -3.985268 -7.359373 3.129898 0.866062 10.978955 -4.746723 -9.452925 -3.359141 -0.247997 -0.516122 0.000000 0.000000 0.000000 0.175763 26.092464 1.592279 -53.774665 21.909359 7.750213 -3.151151 -43.034130 -0.004696 0.854890 3.152902 0.028884 -0.137630 -0.128065 -0.000000 0.000000 0.000000 0.000000 0.000000 0.000000 0.000000 16.630428 5.002275 -0.279412 65.880040 17.990949 17.518518 1.785071 54.738015 0.011457 1.196319 6.346529 0.069702 0.021810 -0.301748 -0.000000 0.000000 0.000000 0.000000 0.000000 0.000000 0.000000 
-7.719162 16.990861 -1.346679 74.448620 87.192469 83.595290 -4.796730 2.920654 -4.933934 -2.358206 3.078754 -3.926538 -7.397930 3.048881 0.839289 11.010630 -4.791403 -9.446049 -3.423847 -0.252665 -0.519157 0.000000 0.000000 0.000000 -0.131455 25.828407 1.564603 -54.037095 21.013863 7.621071 -3.198058 -42.000949 -0.004314 1.073811 3.197910 0.035573 -0.136800 -0.126872 -0.000000 0.000000 0.000000 0.000000 0.000000 0.000000 0.000000 16.964577 4.874354 -0.266841 66.623827 17.418263 17.012509 1.857464 53.353207 0.011529 1.191845 6.342141 0.069085 0.024540 -0.293534 -0.000000 0.000000 0.000000 0.000000 0.000000 0.000000 0.000000 
-7.549198 17.008294 -1.338294 77.975718 87.075481 86.762554 -4.826815 2.829427 -4.614741 -2.359454 2.995908 -3.865460 -7.425251 2.968194 0.813020 10.995656 -4.819280 -9.428057 -3.483961 -0.257085 -0.518518 0.000000 0.000000 0.000000 -0.507337 25.562235 1.530696 -54.352467 20.066108 7.521579 -3.245444 -40.902505 -0.004002 1.276925 3.257052 0.042159 -0.135679 -0.125446 -0.000000 0.000000 0.000000 0.000000 0.000000 0.000000 0.000000 17.220458 4.748427 -0.261638 67.382160 16.804258 16.399989 1.930265 51.881539 0.011396 1.149380 6.302067 0.065963 0.027563 -0.284305 -0.000000 0.000000 0.000000 0.000000 0.000000 0.000000 0.000000 
-7.381498 17.030406 -1.333637 80.187605 86.994731 88.619549 -4.763941 2.746598 -4.302566 -2.337456 2.913424 -3.803441 -7.441765 2.887677 0.791578 10.940294 -4.832877 -9.402592 -3.538444 -0.261149 -0.515141 0.000000 0.000000 0.000000 -0.938390 25.309938 1.491759 -54.724501 19.063095 7.458577 -3.292538 -39.746157 -0.003774 1.454235 3.327437 0.048344 -0.134264 -0.123675 -0.000000 0.000000 0.000000 0.000000 0.000000 0.000000 0.000000 17.401094 4.623600 -0.263592 68.143581 16.158477 15.690722 2.002677 50.344541 0.011079 1.069297 6.225756 0.060332 0.030853 -0.274216 -0.000000 0.000000 0.000000 0.000000 0.000000 0.000000 0.000000 
-7.215654 17.056393 -1.332491 81.092219 86.962013 89.184963 -4.605770 2.671410 -4.011097 -2.292443 2.830715 -3.743271 -7.447969 2.806791 0.775801 10.850018 -4.834279 -9.370962 -3.586528 -0.264808 -0.509242 0.000000 0.000000 0.000000 -1.416886 25.073259 1.448473 -55.149884 18.024002 7.435163 -3.337472 -38.557130 -0.003636 1.599656 3.405498 0.053728 -0.132541 -0.121525 -0.000000 0.000000 0.000000 0.000000 0.000000 0.000000 0.000000 17.509286 4.499521 -0.271033 68.897833 15.488552 14.900636 2.074358 48.763624 0.010604 0.952602 6.118683 0.052498 0.034420 -0.263490 -0.000000 0.000000 0.000000 0.000000 0.000000 0.000000 0.000000 
-7.051338 17.085270 -1.334389 80.660128 86.977556 88.438117 -4.360589 2.602112 -3.750726 -2.226819 2.746947 -3.686771 -7.444613 2.724743 0.768017 10.733076 -4.827902 -9.336542 -3.627778 -0.268005 -0.501739 0.000000 0.000000 0.000000 -1.927294 24.858543 1.402342 -55.629277 16.956670 7.452755 -3.379076 -37.351533 -0.003586 1.709162 3.487900 0.058309 -0.130537 -0.118932 -0.000000 0.000000 0.000000 0.000000 0.000000 0.000000 0.000000 17.553594 4.373751 -0.282544 69.632987 14.803591 14.048969 2.144958 47.163129 0.010014 0.803949 5.987803 0.043061 0.038222 -0.252372 -0.000000 0.000000 0.000000 0.000000 0.000000 0.000000 0.000000 
-6.888224 17.116004 -1.338646 78.827876 87.030592 86.322244 -4.043695 2.536319 -3.528504 -2.144212 2.661048 -3.635510 -7.432293 2.640379 0.768774 10.597745 -4.819759 -9.301688 -3.661926 -0.270704 -0.493299 0.000000 0.000000 0.000000 -2.454096 24.662764 1.354965 -56.162762 15.876875 7.509669 -3.415974 -36.151370 -0.003615 1.782029 3.570974 0.061891 -0.128273 -0.115862 -0.000000 0.000000 0.000000 0.000000 0.000000 0.000000 0.000000 17.543754 4.241671 -0.296100 70.339030 14.113776 13.160644 2.214400 45.564567 0.009362 0.628205 5.845734 0.032421 0.042229 -0.241146 0.000000 0.000000 0.000000 0.000000 0.000000 0.000000 0.000000 
-6.726151 17.147551 -1.344465 75.567409 87.101766 82.809797 -3.675597 2.470491 -3.344211 -2.049099 2.571078 -3.589629 -7.411861 2.551675 0.778476 10.452420 -4.813069 -9.268897 -3.689219 -0.272886 -0.484758 0.000000 0.000000 0.000000 -2.978717 24.485493 1.308904 -56.750828 14.791056 7.603175 -3.447489 -34.973226 -0.003717 1.819598 3.653276 0.064273 -0.125810 -0.112264 -0.000000 0.000000 0.000000 0.000000 0.000000 0.000000 0.000000 17.491537 4.101476 -0.310463 71.005943 13.423271 12.254211 2.282171 43.994101 0.008697 0.436433 5.701937 0.021383 0.046308 -0.230050 0.000000 0.000000 0.000000 0.000000 0.000000 0.000000 0.000000 
-6.564893 17.178971 -1.350979 70.953031 87.165784 77.975675 -3.278912 2.401176 -3.197665 -1.946200 2.475234 -3.549644 -7.383985 2.456632 0.795805 10.304536 -4.816108 -9.239441 -3.709792 -0.274551 -0.476524 0.000000 0.000000 0.000000 -3.485891 24.313701 1.265662 -57.390219 13.719076 7.729820 -3.472472 -33.842184 -0.003863 1.827737 3.730779 0.065755 -0.123180 -0.108163 -0.000000 0.000000 0.000000 0.000000 0.000000 0.000000 0.000000 17.408221 3.944998 -0.323516 71.626649 12.740234 11.357750 2.348304 42.467675 0.008069 0.234692 5.572466 0.010445 0.050424 -0.219329 0.000000 0.000000 0.000000 0.000000 0.000000 0.000000 0.000000 
-6.404358 17.209390 -1.357394 65.299571 87.197328 72.130391 -2.876297 2.324219 -3.082671 -1.840141 2.371044 -3.514893 -7.349376 2.352651 0.819302 10.160411 -4.836216 -9.214435 -3.724058 -0.275706 -0.469015 0.000000 0.000000 0.000000 -3.960662 24.134572 1.227028 -58.077890 12.675505 7.884645 -3.490235 -32.780417 -0.004035 1.814000 3.802055 0.066341 -0.120424 -0.103584 -0.000000 0.000000 0.000000 0.000000 0.000000 0.000000 0.000000 17.304960 3.764518 -0.333661 72.195176 12.069371 10.494606 2.412565 41.001094 0.007514 0.031302 5.469839 0.000008 0.054498 -0.209164 0.000000 0.000000 0.000000 0.000000 0.000000 0.000000 0.000000 
-6.244343 17.238137 -1.362925 59.192638 87.179278 65.857545 -2.489283 2.234603 -2.995174 -1.735645 2.255070 -3.484873 -7.309767 2.236287 0.848448 10.027161 -4.869839 -9.194588 -3.733432 -0.276439 -0.462610 0.000000 0.000000 0.000000 -4.388062 23.949627 1.195279 -58.807684 11.654424 8.070327 -3.501197 -31.799564 -0.004219 1.784901 3.868323 0.066229 -0.117633 -0.098512 -0.000000 0.000000 0.000000 0.000000 0.000000 0.000000 0.000000 17.195689 3.564481 -0.341304 72.704223 11.398923 9.667075 2.473738 39.623141 0.007071 -0.157668 5.396074 -0.009427 0.058300 -0.199639 0.000000 0.000000 0.000000 0.000000 0.000000 0.000000 0.000000 
